<?xml version="1.0" standalone="no"?>
<!DOCTYPE svg PUBLIC "-//W3C//DTD SVG 20010904//EN"
 "http://www.w3.org/TR/2001/REC-SVG-20010904/DTD/svg10.dtd">
<svg version="1.0" xmlns="http://www.w3.org/2000/svg"
 width="154.000000pt" height="154.000000pt" viewBox="0 0 154.000000 154.000000"
 preserveAspectRatio="xMidYMid meet">
<metadata>
Created by potrace 1.14, written by Peter Selinger 2001-2017
</metadata>
<g transform="translate(0.000000,154.000000) scale(0.100000,-0.100000)"
fill="#000000" stroke="none">
<path d="M649 1305 c-3 -2 -14 -6 -25 -8 -90 -13 -229 -137 -283 -252 -17 -36
-39 -68 -49 -71 -121 -38 -212 -136 -245 -264 -18 -68 -6 -185 25 -247 41 -84
134 -159 234 -191 20 -6 213 -10 500 -9 l469 2 53 29 c97 54 150 136 159 244
6 82 -19 157 -73 221 -35 40 -117 91 -148 91 -23 0 -43 39 -50 95 -8 75 -65
182 -130 243 -74 71 -194 130 -236 117 -19 -6 -20 -15 -20 -235 0 -220 1 -229
20 -235 13 -4 31 1 49 14 16 12 35 21 42 21 17 0 69 -60 69 -80 0 -18 -229
-250 -247 -250 -14 0 -253 236 -253 250 0 15 50 69 70 75 13 4 30 -1 46 -14
33 -26 51 -27 62 -3 11 21 10 432 -1 450 -8 12 -29 16 -38 7z"/>
</g>
</svg>
